<?xml version="1.0" encoding="utf-8"?>
<!-- Generator: Adobe Illustrator 22.1.0, SVG Export Plug-In . SVG Version: 6.00 Build 0)  -->
<svg version="1.1" id="Layer_1" xmlns="http://www.w3.org/2000/svg" xmlns:xlink="http://www.w3.org/1999/xlink" x="0px" y="0px"
	 viewBox="0 0 120 120" style="enable-background:new 0 0 120 120;" xml:space="preserve">
<style type="text/css">
	.st0{fill:#00AEEF;}
	.st1{fill:#009444;}
	.st2{fill:#D1D3D4;}
</style>
<path class="st0" d="M117,60c0,31.5-25.5,57-57,57S3,91.5,3,60C3,31.9,23.3,8.5,50.1,3.9C53.3,3.3,56.6,3,60,3
	c3.2,0,6.3,0.3,9.3,0.8C96.3,8.2,117,31.7,117,60z"/>
<ellipse class="st1" cx="44.2" cy="90.7" rx="15.8" ry="10"/>
<ellipse class="st1" cx="80.8" cy="55.6" rx="8.5" ry="15.1"/>
<ellipse class="st1" cx="104.4" cy="55.5" rx="6.6" ry="14.4"/>
<ellipse class="st1" cx="93.3" cy="78.5" rx="11.2" ry="1.7"/>
<path class="st2" d="M86.6,110.4c-6.6-2-15.4-3.2-25-3.2c-10.6,0-20.2,1.4-27,3.8c7.7,3.8,16.3,6,25.4,6
	C69.6,117,78.7,114.6,86.6,110.4z"/>
<path class="st1" d="M3.1,57.5c1.6,3.9,5,6.5,9,6.5c2.3,0,4.4-0.9,6.1-2.5c2.8,2.6,7.6,4.3,13,4.3c8.7,0,15.8-4.5,15.8-10
	c0-2.6-1.6-4.9-4.1-6.7c11.9-1.9,20.6-7.8,20.6-14.9c0-8.6-12.9-15.5-28.9-15.5c-6.3,0-12.2,1.1-17,3c-4.5,5-8.1,10.8-10.6,17.1
	c0.4,0.8,1,1.5,1.6,2.2c-1.2,0.5-2.3,1.2-3.2,2.2C4.1,47.9,3.3,52.6,3.1,57.5z"/>
<path class="st1" d="M62.4,8.9c0,5.5,9,9.9,20.1,9.9c5.4,0,10.3-1.1,13.9-2.8c-8.4-7-18.9-11.6-30.4-12.8
	C63.7,4.9,62.4,6.8,62.4,8.9z"/>
</svg>
